<?xml version="1.0" encoding="UTF-8" standalone="no"?>
<!-- Created with Inkscape (http://www.inkscape.org/) -->

<svg
   width="600"
   height="600"
   viewBox="0 0 600 600"
   version="1.1"
   id="svg5"
   xmlns="http://www.w3.org/2000/svg"
   xmlns:svg="http://www.w3.org/2000/svg">
  <defs
     id="defs2" />
  <g
     id="layer1">
    <path
       id="path2245"
       style="fill:#272bbd;fill-opacity:1;fill-rule:evenodd;stroke:none;stroke-width:13;stroke-linecap:round;stroke-linejoin:round;stroke-dasharray:none;stroke-dashoffset:10.02;stroke-opacity:1;paint-order:markers fill stroke"
       d="m 223.70898,29.070312 a 280,280 0 0 0 -76.75976,31.78125 70,70 0 0 1 -11.58399,83.583988 70,70 0 0 1 -83.544918,11.51953 280,280 0 0 0 -31.802734,76.75 A 70,70 0 0 1 70.929688,300 70,70 0 0 1 20,367.2207 280,280 0 0 0 51.894531,444.16797 70,70 0 0 1 80.875,435.24023 a 70,70 0 0 1 54.49023,20.32422 70,70 0 0 1 11.58399,83.58399 280,280 0 0 0 76.75976,31.78125 A 70,70 0 0 1 290.92969,520 V 419.9082 A 120,120 0 0 1 290,420 120,120 0 0 1 170,300 120,120 0 0 1 290,180 a 120,120 0 0 1 0.92969,0.0312 V 80 A 70,70 0 0 1 223.70898,29.070312 Z" />
    <path
       id="rect7837"
       style="fill:#c93c3c;fill-opacity:1;fill-rule:evenodd;stroke:#000000;stroke-width:12;stroke-dasharray:none;stroke-opacity:1"
       d="m 320.00781,40 c -0.004,0 -0.008,0.0035 -0.008,0.0078 v 9.996094 119.988286 100.01367 99.98828 190.00195 c 0,0.002 0.002,0.004 0.004,0.004 h 99.99218 c 0.002,0 0.004,-0.002 0.004,-0.004 V 370 h 99.99414 c 0.003,0 0.006,-0.003 0.006,-0.006 v -99.98828 c 0,-0.003 -0.003,-0.006 -0.006,-0.006 H 420 V 170 h 159.99219 c 0.004,0 0.008,-0.003 0.008,-0.008 V 40.007812 c 0,-0.0043 -0.003,-0.0078 -0.008,-0.0078 z" />
  </g>
</svg>
