<?xml version="1.0" encoding="UTF-8" standalone="no"?>
<!-- Created with Inkscape (http://www.inkscape.org/) -->

<svg
   width="600"
   height="600"
   viewBox="0 0 600 600"
   version="1.1"
   id="svg5"
   inkscape:version="1.2.2 (732a01da63, 2022-12-09)"
   sodipodi:docname="FreeCAD V2.svg"
   xmlns:inkscape="http://www.inkscape.org/namespaces/inkscape"
   xmlns:sodipodi="http://sodipodi.sourceforge.net/DTD/sodipodi-0.dtd"
   xmlns="http://www.w3.org/2000/svg"
   xmlns:svg="http://www.w3.org/2000/svg">
  <sodipodi:namedview
     id="namedview7"
     pagecolor="#ffffff"
     bordercolor="#000000"
     borderopacity="0.25"
     inkscape:showpageshadow="2"
     inkscape:pageopacity="0.0"
     inkscape:pagecheckerboard="0"
     inkscape:deskcolor="#d1d1d1"
     inkscape:document-units="px"
     showgrid="true"
     inkscape:zoom="1.4485269"
     inkscape:cx="146.70076"
     inkscape:cy="347.24932"
     inkscape:window-width="1920"
     inkscape:window-height="1017"
     inkscape:window-x="-8"
     inkscape:window-y="-8"
     inkscape:window-maximized="1"
     inkscape:current-layer="layer1">
    <inkscape:grid
       type="xygrid"
       id="grid1049"
       empspacing="5"
       spacingx="10"
       spacingy="10" />
  </sodipodi:namedview>
  <defs
     id="defs2" />
  <g
     inkscape:label="Warstwa 1"
     inkscape:groupmode="layer"
     id="layer1">
    <path
       id="path2245"
       style="fill:#272bbd;fill-opacity:1;fill-rule:evenodd;stroke-width:15.6492;stroke-linecap:round;stroke-linejoin:round;stroke-dashoffset:10.02;paint-order:markers fill stroke"
       d="M 223.70898 29.070312 A 280 280 0 0 0 146.94922 60.851562 A 70 70 0 0 1 135.36523 144.43555 A 70 70 0 0 1 51.820312 155.95508 A 280 280 0 0 0 20.017578 232.70508 A 70 70 0 0 1 70.929688 300 A 70 70 0 0 1 20 367.2207 A 280 280 0 0 0 51.894531 444.16797 A 70 70 0 0 1 80.875 435.24023 A 70 70 0 0 1 135.36523 455.56445 A 70 70 0 0 1 146.94922 539.14844 A 280 280 0 0 0 223.70898 570.92969 A 70 70 0 0 1 290.92969 520 L 290.92969 419.9082 A 120 120 0 0 1 290 420 A 120 120 0 0 1 170 300 A 120 120 0 0 1 290 180 A 120 120 0 0 1 290.92969 180.03125 L 290.92969 80 A 70 70 0 0 1 223.70898 29.070312 z " />
    <rect
       style="fill:#ff005f;fill-opacity:1;fill-rule:evenodd;stroke-width:2.8011"
       id="rect7837"
       width="100"
       height="510"
       x="320"
       y="50"
       rx="0.0030127743" />
    <rect
       style="fill:#ff005f;fill-opacity:1;fill-rule:evenodd;stroke-width:2.28035"
       id="rect7837-1"
       width="260"
       height="130"
       x="320"
       y="40"
       rx="0.0078332135" />
    <rect
       style="fill:#ff005f;fill-opacity:1;fill-rule:evenodd;stroke-width:1.75412"
       id="rect7837-1-8"
       width="200"
       height="100"
       x="320"
       y="270"
       rx="0.0060255486" />
    <rect
       style="fill:#000000;fill-opacity:1;fill-rule:evenodd;stroke-width:0.999997"
       id="rect9753"
       width="120"
       height="10"
       x="310"
       y="560"
       rx="0.0015063871" />
    <rect
       style="fill:#000000;fill-opacity:1;fill-rule:evenodd;stroke-width:1.5"
       id="rect9753-8"
       width="270"
       height="10"
       x="310"
       y="30"
       rx="0.0033893711" />
    <rect
       style="fill:#000000;fill-opacity:1;fill-rule:evenodd;stroke-width:1.1547"
       id="rect9753-8-3"
       width="160"
       height="10"
       x="420"
       y="170"
       rx="0.0020085161" />
    <rect
       style="fill:#000000;fill-opacity:1;fill-rule:evenodd;stroke-width:0.957427"
       id="rect9753-8-3-9"
       width="110"
       height="10"
       x="420"
       y="270"
       rx="0.0013808549"
       inkscape:transform-center-x="6.0751373"
       inkscape:transform-center-y="22.781765" />
    <rect
       style="fill:#000000;fill-opacity:1;fill-rule:evenodd;stroke-width:0.912871"
       id="rect9753-8-3-9-6"
       width="100"
       height="10"
       x="420"
       y="370"
       rx="0.0012553226"
       inkscape:transform-center-x="5.5228521"
       inkscape:transform-center-y="22.781765" />
    <rect
       style="fill:#000000;fill-opacity:1;fill-rule:evenodd;stroke-width:0.91287"
       id="rect9753-8-3-9-4"
       width="10"
       height="100"
       x="420"
       y="170"
       rx="0.00012553226" />
    <rect
       style="fill:#000000;fill-opacity:1;fill-rule:evenodd;stroke-width:0.91287"
       id="rect9753-8-3-9-4-6"
       width="10"
       height="100"
       x="520"
       y="280"
       rx="0.00012553226" />
    <rect
       style="fill:#000000;fill-opacity:1;fill-rule:evenodd;stroke-width:1.11803"
       id="rect9753-8-3-9-4-7"
       width="10"
       height="150"
       x="570"
       y="30"
       rx="0.00012553226" />
    <rect
       style="fill:#000000;fill-opacity:1;fill-rule:evenodd;stroke-width:2.08166"
       id="rect9753-8-3-6"
       width="10"
       height="520"
       x="310"
       y="40"
       rx="0.00012553226" />
    <rect
       style="fill:#000000;fill-opacity:1;fill-rule:evenodd;stroke-width:1.291"
       id="rect9753-8-3-9-4-1"
       width="10"
       height="200"
       x="420"
       y="370"
       rx="0.00012553226" />
  </g>
</svg>
