<?xml version="1.0" encoding="UTF-8" standalone="no"?>
<!-- Created with Inkscape (http://www.inkscape.org/) -->

<svg
   width="60"
   height="60"
   viewBox="0 0 60 60"
   version="1.1"
   id="svg5"
   sodipodi:docname="tmp.svg"
   inkscape:version="1.2.2 (732a01da63, 2022-12-09)"
   inkscape:export-filename="FreeCAD LOGO.svg"
   inkscape:export-xdpi="1000"
   inkscape:export-ydpi="1000"
   xmlns:inkscape="http://www.inkscape.org/namespaces/inkscape"
   xmlns:sodipodi="http://sodipodi.sourceforge.net/DTD/sodipodi-0.dtd"
   xmlns="http://www.w3.org/2000/svg"
   xmlns:svg="http://www.w3.org/2000/svg">
  <sodipodi:namedview
     id="namedview7"
     pagecolor="#ffffff"
     bordercolor="#000000"
     borderopacity="0.25"
     inkscape:showpageshadow="2"
     inkscape:pageopacity="0.0"
     inkscape:pagecheckerboard="0"
     inkscape:deskcolor="#d1d1d1"
     inkscape:document-units="px"
     showgrid="true"
     inkscape:zoom="8.0000004"
     inkscape:cx="29.249999"
     inkscape:cy="25.749999"
     inkscape:window-width="1920"
     inkscape:window-height="1017"
     inkscape:window-x="-8"
     inkscape:window-y="-8"
     inkscape:window-maximized="1"
     inkscape:current-layer="layer1"
     showguides="true">
    <inkscape:grid
       type="xygrid"
       id="grid132"
       originx="0"
       originy="0" />
    <sodipodi:guide
       position="30,30"
       orientation="0,-1"
       id="guide1029"
       inkscape:locked="false" />
    <sodipodi:guide
       position="30,30"
       orientation="1,0"
       id="guide1031"
       inkscape:locked="false" />
    <sodipodi:guide
       position="30,30"
       orientation="-0.92387953,-0.38268343"
       id="guide2828"
       inkscape:locked="false"
       inkscape:label=""
       inkscape:color="rgb(0,134,229)" />
    <sodipodi:guide
       position="30,30"
       orientation="0.92387953,-0.38268343"
       id="guide3556"
       inkscape:locked="false"
       inkscape:label=""
       inkscape:color="rgb(0,134,229)" />
    <sodipodi:guide
       position="30,30"
       orientation="0.38268343,-0.92387953"
       id="guide5736"
       inkscape:locked="false"
       inkscape:label=""
       inkscape:color="rgb(0,134,229)" />
    <sodipodi:guide
       position="30,30"
       orientation="-0.38268343,-0.92387953"
       id="guide7192"
       inkscape:locked="false"
       inkscape:label=""
       inkscape:color="rgb(0,134,229)" />
  </sodipodi:namedview>
  <defs
     id="defs2" />
  <g
     inkscape:label="Warstwa 1"
     inkscape:groupmode="layer"
     id="layer1">
    <rect
       style="fill:#ffffff;fill-opacity:1;fill-rule:evenodd;stroke-width:0.948685"
       id="rect989"
       width="60"
       height="60"
       x="7.1054274e-15"
       y="-7.1054274e-15"
       rx="0.0011297903" />
    <path
       style="opacity:0.5;fill:#009d2b;fill-rule:evenodd;stroke:#1fff26;stroke-width:0;stroke-linecap:round;stroke-linejoin:round;stroke-dashoffset:10.02;paint-order:markers fill stroke"
       id="path10637-7-5-5-5-8"
       sodipodi:type="arc"
       sodipodi:cx="30"
       sodipodi:cy="30"
       sodipodi:rx="4.9999943"
       sodipodi:ry="4.9999948"
       sodipodi:start="4.7226372"
       sodipodi:end="4.7203042"
       sodipodi:arc-type="slice"
       d="m 30.05124,25.000268 a 4.9999943,4.9999948 0 0 1 4.948521,5.048056 4.9999943,4.9999948 0 0 1 -5.045169,4.951465 4.9999943,4.9999948 0 0 1 -4.954406,-5.042281 4.9999943,4.9999948 0 0 1 5.03939,-4.957346 L 30,30 Z" />
    <path
       id="path10637-7-5-3-8-6-41"
       style="fill:#ffffff;fill-rule:evenodd;stroke:#1fff26;stroke-width:0;stroke-linecap:round;stroke-linejoin:round;stroke-dashoffset:10.02;paint-order:markers fill stroke"
       d="M 30.12298,18.00063 A 11.99999,11.99999 0 0 1 41.99943,30.11597 11.99999,11.99999 0 0 1 29.89102,41.99949 11.99999,11.99999 0 0 1 18.00044,29.89801 11.99999,11.99999 0 0 1 30.09498,18.00038 l -0.095,11.99961 z" />
    <g
       id="g3858"
       transform="translate(58.000267,64.948764)">
      <g
         id="g3847"
         transform="translate(-59.999997,-64.999994)">
        <path
           id="path10637-8-7-8"
           style="fill:#3b15e3;fill-rule:evenodd;stroke:#1fff26;stroke-width:0;stroke-linecap:round;stroke-linejoin:round;stroke-dashoffset:10.02;paint-order:markers fill stroke"
           d="m 54.995289,29.477494 c 0.21257,10.1749 -5.76398,19.4631 -15.11222,23.48604 -9.34825,4.02294 -20.2021,1.97756 -27.44494,-5.17192 C 5.1952987,40.642134 3.0092887,29.815724 6.9106187,20.416074 10.811949,11.016424 20.021839,4.9198839 30.198639,5.0004439 l -0.19788,24.9992101 z"
           sodipodi:nodetypes="csssccc" />
        <path
           style="fill:#ffffff;fill-opacity:1;fill-rule:evenodd;stroke:#1fff26;stroke-width:0;stroke-linecap:round;stroke-linejoin:round;stroke-dashoffset:10.02;paint-order:markers fill stroke"
           id="path10637-7-1-6-5"
           sodipodi:type="arc"
           sodipodi:cx="30"
           sodipodi:cy="5.000001"
           sodipodi:rx="4.9999943"
           sodipodi:ry="4.9999948"
           sodipodi:start="4.7226372"
           sodipodi:end="4.7203042"
           sodipodi:arc-type="slice"
           d="M 30.05124,2.6876132e-4 A 4.9999943,4.9999948 0 0 1 34.999761,5.048325 4.9999943,4.9999948 0 0 1 29.954592,9.9997895 4.9999943,4.9999948 0 0 1 25.000186,4.9575092 4.9999943,4.9999948 0 0 1 30.039576,1.6282465e-4 L 30,5.000001 Z" />
        <path
           id="path10637-7-1-6-9-4"
           style="fill:#ffffff;fill-rule:evenodd;stroke:#1fff26;stroke-width:0;stroke-linecap:round;stroke-linejoin:round;stroke-dashoffset:10.02;paint-order:markers fill stroke"
           d="m 30.05124,50.00026 a 4.9999943,4.9999948 0 0 1 4.94852,5.04805 4.9999943,4.9999948 0 0 1 -5.04517,4.95147 4.9999943,4.9999948 0 0 1 -4.9544,-5.04228 4.9999943,4.9999948 0 0 1 5.03939,-4.95735 l -0.0396,4.99984 z" />
        <path
           id="path14611-4-1"
           style="fill:#ffffff;fill-rule:evenodd;stroke:#1fff26;stroke-width:0;stroke-linecap:round;stroke-linejoin:round;stroke-dashoffset:10.02;paint-order:markers fill stroke"
           d="M 9.99973,30.05123 A 4.9999948,4.9999943 0 0 1 4.95168,34.99975 4.9999948,4.9999943 0 0 1 2.1e-4,29.95458 4.9999948,4.9999943 0 0 1 5.04249,25.00018 4.9999948,4.9999943 0 0 1 9.99984,30.03957 L 5,29.99999 Z" />
        <path
           id="path14615-4-3"
           style="fill:#ffffff;fill-rule:evenodd;stroke:#1fff26;stroke-width:0;stroke-linecap:round;stroke-linejoin:round;stroke-dashoffset:10.02;paint-order:markers fill stroke"
           d="m 15.82142,15.89391 a 4.9999948,4.9999943 45 0 1 -7.06865,-0.0704 4.9999948,4.9999943 45 0 1 0.0663,-7.06869 4.9999948,4.9999943 45 0 1 7.06873,0.0621 4.9999948,4.9999943 45 0 1 -0.058,7.06876 l -3.50742,-3.56342 z" />
        <path
           id="path14621-6-6"
           style="fill:#ffffff;fill-rule:evenodd;stroke:#1fff26;stroke-width:0;stroke-linecap:round;stroke-linejoin:round;stroke-dashoffset:10.02;paint-order:markers fill stroke"
           d="m 15.89391,44.17856 a 4.9999943,4.9999948 45 0 1 -0.0704,7.06864 4.9999943,4.9999948 45 0 1 -7.06869,-0.0663 4.9999943,4.9999948 45 0 1 0.0621,-7.06872 4.9999943,4.9999948 45 0 1 7.06876,0.058 l -3.5634,3.50743 z" />
        <path
           style="fill:#ffffff;fill-opacity:1;fill-rule:evenodd;stroke:#1fff26;stroke-width:0;stroke-linecap:round;stroke-linejoin:round;stroke-dashoffset:10.02;paint-order:markers fill stroke"
           id="path10637-7-5-3-8-6-4"
           sodipodi:type="arc"
           sodipodi:cx="30"
           sodipodi:cy="30.000008"
           sodipodi:rx="11.99999"
           sodipodi:ry="11.99999"
           sodipodi:start="4.7226372"
           sodipodi:end="4.7203042"
           sodipodi:arc-type="slice"
           d="M 30.122976,18.000647 A 11.99999,11.99999 0 0 1 41.99943,30.115985 11.99999,11.99999 0 0 1 29.891021,41.999503 11.99999,11.99999 0 0 1 18.000443,29.898027 11.99999,11.99999 0 0 1 30.094982,18.000393 L 30,30.000008 Z" />
      </g>
      <rect
         style="fill:#fffffc;fill-opacity:1;fill-rule:evenodd;stroke-width:0.217597"
         id="rect2808"
         width="25"
         height="50"
         x="-30"
         y="-60"
         rx="0.00017118036" />
    </g>
    <rect
       style="fill:#e30057;fill-opacity:1;fill-rule:evenodd;stroke-width:0.948683"
       id="rect2981"
       width="27"
       height="10"
       x="30"
       y="5"
       rx="0.0013557483" />
    <rect
       style="fill:#e30057;fill-opacity:1;fill-rule:evenodd;stroke-width:0.816497"
       id="rect2981-43"
       width="20"
       height="10"
       x="30"
       y="25"
       rx="0.0010042581" />
    <rect
       style="fill:#e30057;fill-opacity:1;fill-rule:evenodd;stroke-width:1.18322"
       id="rect2981-4"
       width="10"
       height="42"
       x="30"
       y="13"
       rx="0.00050212903" />
    <rect
       style="fill:#000000;fill-opacity:1;fill-rule:evenodd;stroke-width:3.1305"
       id="rect3860"
       width="1"
       height="49"
       x="30"
       y="5"
       rx="0.0015063871" />
    <rect
       style="fill:#000000;fill-opacity:1;fill-rule:evenodd;stroke-width:1.54919"
       id="rect3860-61"
       width="1"
       height="12"
       x="39"
       y="14"
       rx="0.0015063871" />
    <rect
       style="fill:#000000;fill-opacity:1;fill-rule:evenodd;stroke-width:1.41421"
       id="rect3860-61-7"
       width="1"
       height="10"
       x="49"
       y="25"
       rx="0.0015063871" />
    <rect
       style="fill:#000000;fill-opacity:1;fill-rule:evenodd;stroke-width:1.41421"
       id="rect3860-61-7-9"
       width="1"
       height="10"
       x="56"
       y="5"
       rx="0.0015063871" />
    <rect
       style="fill:#000000;fill-opacity:1;fill-rule:evenodd;stroke-width:1.99999"
       id="rect3860-61-7-4"
       width="1"
       height="20"
       x="39"
       y="34"
       rx="0.0015063871" />
    <rect
       style="fill:#000000;fill-opacity:1;fill-rule:evenodd;stroke-width:2.28036"
       id="rect3860-6"
       width="26"
       height="1"
       x="31"
       y="5"
       rx="0.039166067" />
    <rect
       style="fill:#000000;fill-opacity:1;fill-rule:evenodd;stroke-width:1.84392"
       id="rect3860-6-7"
       width="17"
       height="1"
       x="40"
       y="14"
       rx="0.025608582" />
    <rect
       style="fill:#000000;fill-opacity:1;fill-rule:evenodd;stroke-width:1.41422"
       id="rect3860-6-8"
       width="10"
       height="1"
       x="40"
       y="25"
       rx="0.015063872" />
    <rect
       style="fill:#000000;fill-opacity:1;fill-rule:evenodd;stroke-width:1.41422"
       id="rect3860-6-8-7"
       width="10"
       height="1"
       x="40"
       y="34"
       rx="0.015063872" />
    <rect
       style="fill:#000000;fill-opacity:1;fill-rule:evenodd;stroke-width:1.41422"
       id="rect3860-6-8-9"
       width="10"
       height="1"
       x="30"
       y="54"
       rx="0.015063872" />
  </g>
</svg>
