<?xml version="1.0" encoding="UTF-8" standalone="no"?>
<!-- Created with Inkscape (http://www.inkscape.org/) -->

<svg
   width="600"
   height="600"
   viewBox="0 0 600 600"
   version="1.1"
   id="svg5"
   inkscape:version="1.2.2 (732a01da63, 2022-12-09)"
   sodipodi:docname="FreeCAD V3.svg"
   inkscape:export-filename="FreeCAD LOGO V2.svg"
   inkscape:export-xdpi="96"
   inkscape:export-ydpi="96"
   xmlns:inkscape="http://www.inkscape.org/namespaces/inkscape"
   xmlns:sodipodi="http://sodipodi.sourceforge.net/DTD/sodipodi-0.dtd"
   xmlns="http://www.w3.org/2000/svg"
   xmlns:svg="http://www.w3.org/2000/svg">
  <sodipodi:namedview
     id="namedview7"
     pagecolor="#ffffff"
     bordercolor="#000000"
     borderopacity="0.25"
     inkscape:showpageshadow="2"
     inkscape:pageopacity="0.0"
     inkscape:pagecheckerboard="0"
     inkscape:deskcolor="#d1d1d1"
     inkscape:document-units="px"
     showgrid="true"
     inkscape:zoom="1.0242632"
     inkscape:cx="319.74203"
     inkscape:cy="315.34863"
     inkscape:window-width="1920"
     inkscape:window-height="1017"
     inkscape:window-x="-8"
     inkscape:window-y="-8"
     inkscape:window-maximized="1"
     inkscape:current-layer="layer1">
    <inkscape:grid
       type="xygrid"
       id="grid1049"
       empspacing="5"
       spacingx="10"
       spacingy="10" />
  </sodipodi:namedview>
  <defs
     id="defs2" />
  <g
     inkscape:label="Warstwa 1"
     inkscape:groupmode="layer"
     id="layer1">
    <path
       id="path2245"
       style="fill:#272bbd;fill-opacity:1;fill-rule:evenodd;stroke-width:15.6492;stroke-linecap:round;stroke-linejoin:round;stroke-dashoffset:10.02;paint-order:markers fill stroke"
       d="M 223.70898 29.070312 A 280 280 0 0 0 146.94922 60.851562 A 70 70 0 0 1 135.36523 144.43555 A 70 70 0 0 1 51.820312 155.95508 A 280 280 0 0 0 20.017578 232.70508 A 70 70 0 0 1 70.929688 300 A 70 70 0 0 1 20 367.2207 A 280 280 0 0 0 51.894531 444.16797 A 70 70 0 0 1 80.875 435.24023 A 70 70 0 0 1 135.36523 455.56445 A 70 70 0 0 1 146.94922 539.14844 A 280 280 0 0 0 223.70898 570.92969 A 70 70 0 0 1 290.92969 520 L 290.92969 419.9082 A 120 120 0 0 1 290 420 A 120 120 0 0 1 170 300 A 120 120 0 0 1 290 180 A 120 120 0 0 1 290.92969 180.03125 L 290.92969 80 A 70 70 0 0 1 223.70898 29.070312 z " />
    <path
       id="rect7837"
       style="fill:#ff005f;fill-opacity:1;fill-rule:evenodd;stroke-width:2.8011"
       d="M 320.00781 40 C 320.00347 40 320 40.003473 320 40.007812 L 320 50.003906 L 320 169.99219 L 320 270.00586 L 320 369.99414 L 320 559.99609 C 320 559.99776 320.00224 560 320.00391 560 L 419.99609 560 C 419.99776 560 420 559.99776 420 559.99609 L 420 370 L 519.99414 370 C 519.99748 370 520 369.99748 520 369.99414 L 520 270.00586 C 520 270.00252 519.99748 270 519.99414 270 L 420 270 L 420 170 L 579.99219 170 C 579.99653 170 580 169.99653 580 169.99219 L 580 40.007812 C 580 40.003473 579.99653 40 579.99219 40 L 320.00781 40 z " />
    <path
       id="rect9753"
       style="fill:#000000;fill-opacity:1;fill-rule:evenodd;stroke-width:0.999997"
       d="M 310.00391 30 C 310.00203 30 310 30.002029 310 30.003906 L 310 39.996094 C 310 39.997971 310.00203 40 310.00391 40 L 310 40 L 310 560 L 310 560.00195 L 310 569.99805 L 310.00195 570 L 429.99805 570 L 430 569.99805 L 430 560.00195 L 430 380 L 519.99805 380 L 520 380 L 530 380 L 530 280 L 530 279.99805 L 530 270.00195 L 529.99805 270 L 430 270 L 430 180 L 579.99805 180 L 580 179.99805 L 580 170.00195 L 580 39.996094 L 580 30.003906 L 580 30 L 579.99609 30 L 570 30 L 310.00391 30 z M 320 40 L 570 40 L 570 170 L 430 170 L 420 170 L 420 170.00195 L 420 179.99805 L 420 270 L 420 270.00195 L 420 279.99805 L 420.00195 280 L 520 280 L 520 370.00195 L 519.99805 370 L 430 370 L 420 370 L 420 370.00195 L 420 379.99805 L 420 560 L 320 560 L 320 40 z " />
  </g>
</svg>
